<svg version="1" xmlns="http://www.w3.org/2000/svg" width="2080" height="2080" viewBox="0 0 1560.000000 1560.000000"><path d="M466.5 171c-6.5 2.9-13.2 13.2-16.8 25.9l-2.1 7.6-.3 184c-.1 101.2-.2 192-.2 201.7L447 608H379.7l.7 5.4c.7 6.5 3.9 17.4 7.1 24.1 2.7 5.8 11 14 20.7 20.5 3.8 2.5 6.8 4.8 6.8 5.2 0 .5 166 .8 369 .8h369l5.2-3.2c5.8-3.6 6.8-4.3 10.3-7.6 1.3-1.2 2.7-2.2 3.1-2.2 1.1 0 8.4-7.7 8.4-8.9 0-.6.4-1.1.9-1.1.9 0 5.7-11.4 6.6-15.6.2-1 1.1-4.5 1.9-7.7 2.9-10.7 6.4-9.7-31.9-9.7H1124l-.1-198.8c0-109.3-.2-199.6-.4-200.7-.2-1.1-.7-4.3-1.1-7-.8-5.2-1-6.2-1.4-7-.1-.3-.3-.8-.5-1.3-.9-3.2-4.6-11.3-5.9-13-3.1-3.9-8-8.4-10.2-9.3-3.3-1.2-635.1-1.1-637.9.1zm27.1 453.4c1.3 5.3-3 9.6-6.3 6.3-1.9-1.9-2-6.6-.2-7.8 2.8-1.7 5.8-1 6.5 1.5zm17.7-.3c1.4 2.3 0 6.7-2.4 7.4-3.9 1.3-6.8-3.8-4.2-7.5 1.7-2.4 5.1-2.4 6.6.1zm17.5-.9c3.6 3.6-.4 10.1-4.8 7.8-3.7-2-2.1-9 2-9 .9 0 2.1.5 2.8 1.2zm303.9.8c6 4 6.6 14.4 1.2 19.6l-3 2.9-44.5.3c-48.3.3-48.3.3-52-5.4-4-6.1-.7-16.4 5.9-18.3 1.8-.6 21.8-.9 46.7-.8 36.1.2 43.9.4 45.7 1.7z"/><path d="M146.7 253c-20.4 3.7-38.5 13.5-52.8 28.8-10.7 11.4-17.4 23.6-22.6 40.8-1.7 5.6-1.8 19.1-2.1 234.9-.2 168 0 231.5.8 238.5 1.6 12.9 5.9 29.5 10.7 41 2.9 7.2 37.9 64.6 142.2 233.5C299 1193.7 362.4 1297 363.8 1300c1.3 3 3.6 9.8 5 15l2.6 9.5.6 53.1.5 53.1 3 4.9c8 12.9 27 15.4 37.7 5 7.6-7.4 7.3-4.8 7.3-64.1 0-50.9-.1-53.4-2.2-64-2.5-12-5.9-23.3-10.2-33.5-1.6-3.6-64.9-107.1-140.8-230.1-76-122.9-139-225.3-140.1-227.5-2.9-5.7-6.8-18.8-8-26.9-.7-4.7-1.3-80.8-1.7-229-.6-242.9-.9-229.5 5.2-240.6 8.2-15.2 22.6-23.9 39.5-23.9 18 0 32.8 9.4 40.7 26l3.6 7.5.5 207.5c.7 229.9.1 212 7 229.8 6.5 16.7 6.9 17.2 73.6 84.7 92.8 93.9 162.5 163 166.4 165 5.1 2.6 15 3.1 20.4 1.1 11.8-4.5 18.1-18.2 14.1-30.7-1.7-5.2-6.8-10.5-113.4-117.4C270 769.2 263.2 762.1 260.6 756.2c-7.7-17.7-5-35.5 7.6-48.8 8.4-9 17.1-13.4 29-14.9 6.8-.8 18.1 1.5 25.1 5.1 4 2.2 34.4 31.9 137.6 134.8 72.7 72.7 135.7 135.9 139.8 140.6 21.8 24.6 40 63.6 47.5 101.5 2.2 11 2.2 11.1 2.8 184 .6 192.2-.1 175.2 7.2 182.2 4.4 4.2 9.6 6.3 15.9 6.3 10.7 0 18.4-4.6 22.5-13.4l2.4-5.1v-171.2c0-150-.2-172.6-1.6-182.5-6.2-45-27.6-94.9-55.2-128.8C633 935.9 360.7 664.1 355 660.3c-6.5-4.3-16.5-9.2-24.2-11.9-10.5-3.5-20.3-4.7-34.5-4.1-13.8.5-25.6 3.3-35.3 8.2l-5 2.5-.2-162.7-.3-162.8-2.3-7.8c-1.2-4.2-3.4-10.3-4.7-13.4-1.4-3.1-2.3-5.9-1.9-6.2.3-.3 4.7-.7 9.7-.9 7.3-.3 10.4.1 15.1 1.7 14.5 5.1 24.7 15.6 29.7 30.6 1.1 3.2 1.5 27.8 1.9 126.6l.5 122.6 3 4.9c10.2 16.4 35.7 14.5 43.1-3.2 1.2-2.8 1.4-24.3 1.4-126.9 0-108.7-.2-124.5-1.6-131.3-3.4-16.5-11.7-32.3-23.8-45-11.9-12.5-25.3-20.7-42.3-25.9-8-2.4-10.3-2.7-25.3-2.7-18.7 0-25.4 1.3-39.9 8l-8.1 3.7-8.1-3.7c-12.8-5.9-21.4-7.8-36.9-8.2-7.4-.1-15.7.1-18.3.6zM1295.7 253c-8.1 1.4-18.7 5-26.2 8.7-25.4 12.7-44.3 37.2-49.9 64.5-1.4 6.8-1.6 22.6-1.6 131.3 0 102.6.2 124.1 1.4 126.9 7.4 17.7 32.9 19.6 43.1 3.2l3-4.9.5-122.6c.4-98.8.8-123.4 1.9-126.6 5-15 15.2-25.5 29.7-30.6 4.7-1.6 7.8-2 15.1-1.7 5 .2 9.4.6 9.7.9.4.3-.5 3.1-1.9 6.2-1.3 3.1-3.5 9.2-4.7 13.4l-2.3 7.8-.3 162.8-.2 162.7-5-2.5c-18.7-9.5-48.7-11.2-69.8-4.1-7.7 2.7-17.7 7.6-24.2 11.9-5.7 3.8-278 275.6-286.2 285.7-27.6 33.9-49 83.8-55.2 128.8-1.4 9.9-1.6 32.5-1.6 182.5v171.2l2.4 5.1c6.8 14.5 26.8 18.2 38.4 7.1 7.3-7 6.6 10 7.2-182.2.6-172.9.6-173 2.8-184 7.5-37.9 25.7-76.9 47.5-101.5 4.1-4.7 67.1-67.9 139.8-140.6 103.2-102.9 133.6-132.6 137.6-134.8 7-3.6 18.3-5.9 25.1-5.1 11.4 1.4 19.6 5.4 28 13.7 13.2 13.1 16.5 31.9 8.6 49.9-2.6 6.1-8.7 12.4-114.5 118.4l-111.7 112-1.7 5.9c-3.7 12.8 2.3 25.7 14.1 30.2 5.4 2 15.3 1.5 20.4-1.1 3.9-2 73.6-71.1 166.4-165 66.7-67.5 67.1-68 73.6-84.7 6.9-17.8 6.3.1 7-229.8l.5-207.5 3.6-7.5c7.9-16.6 22.7-26 40.7-26 16.9 0 31.3 8.7 39.5 23.9 6.1 11.1 5.8-2.3 5.2 240.6-.4 148.2-1 224.3-1.7 229-1.2 8-5.1 21.2-8 26.9-1.1 2.1-64.1 104.5-140 227.5-76 123-139.3 226.5-140.9 230.1-4.3 10.2-7.7 21.5-10.2 33.5-2.1 10.6-2.2 13.1-2.2 64 0 50.2.1 53.2 1.9 56.9 8.6 17.2 33 18.4 43.1 2.2l3-4.9.5-53.1.6-53.1 2.6-9.5c1.4-5.2 3.7-12 5-15 1.4-3 64.8-106.3 140.9-229.5 104.3-168.9 139.3-226.3 142.2-233.5 4.8-11.5 9.1-28.1 10.7-41 .8-7 1-70.5.8-238.5-.3-215.8-.4-229.3-2.1-234.9-5.2-17.2-11.9-29.4-22.6-40.8-12.1-12.9-25.4-21.2-42.8-26.5-8-2.4-10.3-2.7-25.3-2.7-18.7 0-25.4 1.3-39.9 8l-8.1 3.7-8.1-3.7c-12.8-5.9-21.4-7.8-36.9-8.2-7.4-.1-15.7.1-18.3.6z"/></svg>